<svg width="52" height="52" viewBox="0 0 52 52" fill="none" xmlns="http://www.w3.org/2000/svg">
<circle cx="25.9998" cy="26.1537" r="25.3846" fill="#180F24"/>
<path d="M19.0438 16.4878H30.4724V19.3449H19.0438V16.4878ZM13.3295 22.2021V19.3449H19.0438V22.2021H13.3295ZM10.4724 25.0592V22.2021H13.3295V25.0592H10.4724ZM10.4724 27.9164V25.0592H7.61523V27.9164H10.4724ZM13.3295 30.7735H10.4724V27.9164H13.3295V30.7735ZM19.0438 33.6306H13.3295V30.7735H19.0438V33.6306ZM30.4724 33.6306V36.4878H19.0438V33.6306H30.4724ZM36.1867 30.7735V33.6306H30.4724V30.7735H36.1867ZM39.0438 27.9164V30.7735H36.1867V27.9164H39.0438ZM39.0438 25.0592H41.9009V27.9164H39.0438V25.0592ZM36.1867 22.2021H39.0438V25.0592H36.1867V22.2021ZM36.1867 22.2021V19.3449H30.4724V22.2021H36.1867ZM21.9009 23.6307H27.6152V29.3449H21.9009V23.6307Z" fill="white"/>
</svg>
