<svg width="50" height="50" viewBox="0 0 50 50" fill="none" xmlns="http://www.w3.org/2000/svg">
<circle cx="25" cy="25" r="25" fill="#180F24"/>
<rect width="2.85714" height="2.85714" transform="matrix(-1 -8.74228e-08 -8.74228e-08 1 22.2627 29.0581)" fill="white"/>
<rect width="2.85714" height="4.28571" transform="matrix(-1 -8.74228e-08 -8.74228e-08 1 20.834 30.4868)" fill="white"/>
<rect width="2.85714" height="4.28571" transform="matrix(-1 -8.74228e-08 -8.74228e-08 1 32.2627 30.4868)" fill="white"/>
<rect width="2.85714" height="4.28571" transform="matrix(-1 -8.74228e-08 -8.74228e-08 1 39.4053 26.2012)" fill="white"/>
<rect x="10.834" y="26.2012" width="2.85714" height="4.28571" fill="white"/>
<rect width="8.57143" height="2.85714" transform="matrix(-1 -8.74228e-08 -8.74228e-08 1 29.4053 27.6294)" fill="white"/>
<rect width="5.71429" height="2.85714" transform="matrix(-1 -8.74228e-08 -8.74228e-08 1 36.5479 23.3438)" fill="white"/>
<rect x="13.6914" y="23.3438" width="5.71429" height="2.85714" fill="white"/>
<rect width="2.85714" height="2.85714" transform="matrix(-1 -8.74228e-08 -8.74228e-08 1 30.834 29.0581)" fill="white"/>
<rect width="2.85714" height="2.85714" transform="matrix(-1 -8.74228e-08 -8.74228e-08 1 37.9766 24.7725)" fill="white"/>
<rect x="12.2627" y="24.7725" width="2.85714" height="2.85714" fill="white"/>
<rect x="22.2627" y="20.4868" width="2.85714" height="2.85714" fill="white"/>
<rect x="29.4053" y="16.2012" width="2.85714" height="2.85714" fill="white"/>
<rect width="2.85714" height="2.85714" transform="matrix(-1 0 0 1 20.834 16.2012)" fill="white"/>
<rect x="23.6914" y="19.0581" width="2.85714" height="2.85714" fill="white"/>
<rect x="30.834" y="14.7725" width="2.85714" height="2.85714" fill="white"/>
<rect width="2.85714" height="2.85714" transform="matrix(-1 0 0 1 19.4053 14.7725)" fill="white"/>
<rect x="25.1201" y="20.4868" width="2.85714" height="2.85714" fill="white"/>
<rect x="32.2627" y="16.2012" width="2.85714" height="2.85714" fill="white"/>
<rect width="2.85714" height="2.85714" transform="matrix(-1 0 0 1 17.9766 16.2012)" fill="white"/>
<rect x="23.6914" y="21.9155" width="2.85714" height="2.85714" fill="white"/>
<rect x="30.834" y="17.6294" width="2.85714" height="2.85714" fill="white"/>
<rect width="2.85714" height="2.85714" transform="matrix(-1 0 0 1 19.4053 17.6294)" fill="white"/>
</svg>
