<svg width="28" height="28" viewBox="0 0 28 28" fill="none" xmlns="http://www.w3.org/2000/svg">
<rect x="4" y="1" width="19" height="3" fill="white"/>
<rect x="23" y="1" width="1" height="5" fill="white"/>
<rect x="24" y="2" width="1" height="4" fill="white"/>
<rect x="24" y="22" width="1" height="4" fill="white"/>
<rect x="23" y="22" width="1" height="5" fill="white"/>
<rect x="3" y="2" width="1" height="2" fill="white"/>
<rect x="3" y="24" width="1" height="2" fill="white"/>
<rect x="2" y="4" width="3" height="20" fill="white"/>
<rect x="4" y="24" width="19" height="3" fill="white"/>
<rect x="16" y="13" width="6" height="3" fill="white"/>
<rect x="22" y="10" width="1" height="9" fill="white"/>
<rect x="23" y="11" width="1" height="7" fill="white"/>
<rect x="24" y="12" width="1" height="5" fill="white"/>
<rect x="25" y="13" width="1" height="3" fill="white"/>
<rect x="26" y="15" width="1" height="1" fill="white"/>
<rect x="15" y="14" width="1" height="1" fill="white"/>
</svg>
