<svg width="51" height="51" viewBox="0 0 51 51" fill="none" xmlns="http://www.w3.org/2000/svg">
<circle cx="25.3846" cy="25.3846" r="25.3846" fill="white"/>
<rect x="35.0765" y="34.8981" width="3.92357" height="3.92357" fill="black"/>
<rect x="32.9363" y="33.1146" width="4.10191" height="3.92357" fill="black"/>
<rect x="31.3312" y="31.3312" width="3.92357" height="3.92357" fill="black"/>
<rect x="29.3694" y="29.3694" width="3.92357" height="3.92357" fill="black"/>
<rect x="27.5859" y="27.5861" width="3.92357" height="3.92357" fill="black"/>
<rect x="25.8025" y="23.8408" width="1.96178" height="5.70701" fill="black"/>
<rect x="23.8408" y="25.8025" width="5.88535" height="1.96178" fill="black"/>
<rect x="16.5286" y="19.2039" width="7.66879" height="2.14013" fill="black"/>
<rect x="16.5286" y="27.5861" width="7.66879" height="1.96178" fill="black"/>
<rect x="16.5286" y="11" width="7.66879" height="1.96178" fill="black"/>
<rect x="14.7452" y="25.8025" width="1.96178" height="1.96178" fill="black"/>
<rect x="14.7452" y="12.7834" width="1.96178" height="2.14013" fill="black"/>
<rect x="24.0192" y="12.7834" width="1.96178" height="2.14013" fill="black"/>
<rect x="12.7834" y="23.8408" width="2.14013" height="2.14013" fill="black"/>
<rect x="12.7834" y="14.5669" width="2.14013" height="2.14013" fill="black"/>
<rect x="25.8025" y="14.5669" width="2.14013" height="2.14013" fill="black"/>
<rect x="11" y="16.5287" width="2.14013" height="7.49045" fill="black"/>
<rect x="27.5859" y="16.5287" width="2.14013" height="7.49045" fill="black"/>
</svg>
