<svg width="51" height="52" viewBox="0 0 51 52" fill="none" xmlns="http://www.w3.org/2000/svg">
<circle cx="25.3846" cy="25.8294" r="25.3846" fill="white"/>
<path d="M9 19.2393H11.6667V21.8935H9V19.2393ZM14.3333 24.5477H11.6667V21.8935H14.3333V24.5477ZM19.6667 27.2019V24.5477H14.3333V27.2019H11.6667V29.8562H14.3333V27.2019H19.6667ZM30.3333 27.2019H19.6667V29.8562H17V32.5104H19.6667V29.8562H30.3333V32.5104H33V29.8562H30.3333V27.2019ZM35.6667 24.5477H30.3333V27.2019H35.6667V29.8562H38.3333V27.2019H35.6667V24.5477ZM38.3333 21.8935V24.5477H35.6667V21.8935H38.3333ZM38.3333 21.8935V19.2393H41V21.8935H38.3333Z" fill="black"/>
</svg>
